<mxfile host="65bd71144e">
    <diagram id="Tm4o0kY6xMyGQ3lXSkHQ" name="ページ1">
        <mxGraphModel dx="1883" dy="1375" grid="1" gridSize="10" guides="1" tooltips="1" connect="1" arrows="1" fold="1" page="1" pageScale="1" pageWidth="1654" pageHeight="1169" math="0" shadow="0">
            <root>
                <mxCell id="0"/>
                <mxCell id="1" parent="0"/>
                <mxCell id="9" value="" style="swimlane;startSize=0;dashed=1;" vertex="1" parent="1">
                    <mxGeometry x="360" y="325" width="520" height="520" as="geometry"/>
                </mxCell>
                <mxCell id="10" value="" style="swimlane;startSize=0;dashed=1;" vertex="1" parent="1">
                    <mxGeometry x="960" y="320" width="240" height="520" as="geometry"/>
                </mxCell>
                <mxCell id="11" value="" style="swimlane;startSize=0;dashed=1;" vertex="1" parent="1">
                    <mxGeometry x="1280" y="320" width="280" height="520" as="geometry"/>
                </mxCell>
                <mxCell id="12" value="" style="swimlane;startSize=0;dashed=1;" vertex="1" parent="1">
                    <mxGeometry x="120" y="200" width="1480" height="760" as="geometry"/>
                </mxCell>
            </root>
        </mxGraphModel>
    </diagram>
</mxfile>